{"asset":{"generator":"glTF-Transform v4.2.1","version":"2.0"},"accessors":[{"type":"SCALAR","componentType":5123,"count":44997,"bufferView":0,"byteOffset":0},{"type":"VEC3","componentType":5122,"count":10489,"normalized":true,"bufferView":1,"byteOffset":0},{"type":"VEC3","componentType":5122,"count":10489,"max":[32763,10928,32767],"min":[-32763,-10928,-32767],"normalized":true,"bufferView":1,"byteOffset":8},{"type":"VEC2","componentType":5123,"count":10489,"normalized":true,"bufferView":1,"byteOffset":16}],"bufferViews":[{"buffer":0,"byteOffset":0,"byteLength":89996,"target":34963},{"buffer":0,"byteOffset":89996,"byteLength":209780,"byteStride":20,"target":34962}],"samplers":[{"magFilter":9729,"minFilter":9987,"wrapS":10497,"wrapT":10497}],"textures":[{"source":0,"sampler":0}],"images":[{"name":"Image_0","mimeType":"image/jpeg","uri":"552eeaa4e89bcfc1ca090a88a4651516.jpg"}],"buffers":[{"uri":"laboratory equipment_bin/buffer.bin","byteLength":299776}],"materials":[{"name":"Material_0.001","doubleSided":true,"pbrMetallicRoughness":{"roughnessFactor":0.800000011920929,"metallicFactor":0,"baseColorTexture":{"index":0}}}],"meshes":[{"name":"Mesh1","primitives":[{"attributes":{"NORMAL":1,"POSITION":2,"TEXCOORD_0":3},"mode":4,"material":0,"indices":0}]}],"nodes":[{"name":"Mesh1","extras":{"meta_spatial":{"entity_id":"Mesh1"}},"translation":[-0.0014311671257019043,0.3343336582183838,-0.001287221908569336],"scale":[1.002415657043457,1.002415657043457,1.002415657043457],"mesh":0}],"scenes":[{"nodes":[0]}],"scene":0,"extensionsUsed":["KHR_mesh_quantization"],"extensionsRequired":["KHR_mesh_quantization"]}